<svg width="32" height="32" viewBox="0 0 32 32" fill="none" xmlns="http://www.w3.org/2000/svg">
<g clip-path="url(#clip0_1_51)">
<path d="M14.4027 23.6933C14.5258 23.6935 14.6476 23.7179 14.7613 23.7652C14.8749 23.8125 14.9782 23.8816 15.0651 23.9688C15.152 24.056 15.2209 24.1594 15.2678 24.2732C15.3148 24.387 15.3388 24.5089 15.3387 24.632C15.3385 24.7551 15.3141 24.8769 15.2668 24.9906C15.2195 25.1043 15.1503 25.2075 15.0632 25.2944C14.976 25.3813 14.8726 25.4502 14.7588 25.4972C14.645 25.5441 14.5231 25.5682 14.4 25.568C14.1514 25.5676 13.9131 25.4686 13.7376 25.2925C13.5621 25.1165 13.4636 24.8779 13.464 24.6293C13.4644 24.3807 13.5634 24.1425 13.7395 23.9669C13.9155 23.7914 14.1541 23.693 14.4027 23.6933ZM29.1013 17.8973C28.9782 17.8972 28.8564 17.8729 28.7427 17.8257C28.629 17.7785 28.5257 17.7094 28.4387 17.6223C28.3518 17.5352 28.2828 17.4318 28.2358 17.3181C28.1887 17.2043 28.1646 17.0824 28.1647 16.9593C28.1648 16.8362 28.1891 16.7144 28.2363 16.6007C28.2835 16.487 28.3526 16.3837 28.4397 16.2967C28.5268 16.2098 28.6302 16.1408 28.7439 16.0938C28.8577 16.0467 28.9796 16.0226 29.1027 16.0227C29.3513 16.0228 29.5896 16.1218 29.7653 16.2977C29.9409 16.4736 30.0395 16.7121 30.0393 16.9607C30.0392 17.2093 29.9402 17.4476 29.7643 17.6233C29.5884 17.7989 29.3499 17.8975 29.1013 17.8973ZM29.1013 14.0627C28.3328 14.0634 27.5959 14.369 27.0524 14.9124C26.509 15.4559 26.2034 16.1928 26.2027 16.9613C26.2027 17.272 26.2547 17.5813 26.356 17.8827L16.7813 22.98C16.5158 22.5945 16.1606 22.2794 15.7462 22.0617C15.3318 21.8441 14.8707 21.7305 14.4027 21.7307C13.2973 21.7307 12.2907 22.364 11.8027 23.352L3.20133 18.816C2.292 18.3387 1.612 16.8427 1.684 15.48C1.72133 14.7693 1.96667 14.2173 2.34133 14.004C2.57866 13.8707 2.864 13.8813 3.168 14.04L3.224 14.0707C5.504 15.2707 12.9627 19.2 13.2773 19.3453C13.7613 19.5707 14.0307 19.6613 14.8573 19.2693L30.276 11.2507C30.5027 11.1653 30.7667 10.948 30.7667 10.6187C30.7667 10.1627 30.2947 9.98267 30.2933 9.98267C29.416 9.56267 28.068 8.932 26.7533 8.316C23.9427 7 20.7573 5.50933 19.3587 4.776C18.1507 4.144 17.1787 4.67733 17.0053 4.784L16.6693 4.95067C10.3733 8.064 1.94667 12.2373 1.46667 12.5293C0.609332 13.052 0.0773317 14.0933 0.00799838 15.3853C-0.0986683 17.4347 0.945332 19.572 2.44 20.3547L11.536 25.0453C11.6362 25.7344 11.981 26.3643 12.5073 26.8202C13.0336 27.276 13.7064 27.5272 14.4027 27.528C15.1631 27.5267 15.8927 27.2271 16.4345 26.6935C16.9763 26.1599 17.2871 25.435 17.3 24.6747L27.3187 19.244C27.8253 19.6413 28.456 19.8587 29.1013 19.8587C29.8699 19.858 30.6068 19.5523 31.1502 19.0089C31.6937 18.4654 31.9993 17.7286 32 16.96C31.9993 16.1914 31.6937 15.4546 31.1502 14.9111C30.6068 14.3677 29.8699 14.062 29.1013 14.0613" fill="white"/>
<path d="M29.1013 14.0627C28.3328 14.0634 27.5959 14.369 27.0524 14.9124C26.509 15.4559 26.2034 16.1928 26.2027 16.9613C26.2027 17.272 26.2547 17.5813 26.356 17.8827L16.7813 22.98C16.5158 22.5945 16.1606 22.2794 15.7462 22.0617C15.3318 21.8441 14.8707 21.7305 14.4027 21.7307C13.2973 21.7307 12.2907 22.364 11.8027 23.352L3.20133 18.816C2.292 18.3387 1.612 16.8427 1.684 15.48C1.72133 14.7693 1.96667 14.2173 2.34133 14.004C2.57866 13.8707 2.864 13.8813 3.168 14.04L3.224 14.0707C5.504 15.2707 12.9627 19.2 13.2773 19.3453C13.7613 19.5707 14.0307 19.6613 14.8573 19.2693L30.276 11.2507C30.5027 11.1653 30.7667 10.948 30.7667 10.6187C30.7667 10.1627 30.2947 9.98267 30.2933 9.98267C29.416 9.56267 28.068 8.932 26.7533 8.316C23.9427 7 20.7573 5.50933 19.3587 4.776C18.1507 4.144 17.1787 4.67733 17.0053 4.784L16.6693 4.95067C10.3733 8.064 1.94667 12.2373 1.46667 12.5293C0.609332 13.052 0.0773317 14.0933 0.00799838 15.3853C-0.0986683 17.4347 0.945332 19.572 2.44 20.3547L11.536 25.0453C11.6362 25.7344 11.981 26.3643 12.5073 26.8202C13.0336 27.276 13.7064 27.5272 14.4027 27.528C15.1631 27.5267 15.8927 27.2271 16.4345 26.6935C16.9763 26.1599 17.2871 25.435 17.3 24.6747L27.3187 19.244C27.8253 19.6413 28.456 19.8587 29.1013 19.8587C29.8699 19.858 30.6068 19.5523 31.1502 19.0089C31.6937 18.4654 31.9993 17.7286 32 16.96C31.9993 16.1914 31.6937 15.4546 31.1502 14.9111C30.6068 14.3677 29.8699 14.062 29.1013 14.0613M14.4027 23.6933C14.5258 23.6935 14.6476 23.7179 14.7613 23.7652C14.8749 23.8125 14.9782 23.8816 15.0651 23.9688C15.152 24.056 15.2209 24.1594 15.2678 24.2732C15.3148 24.387 15.3388 24.5089 15.3387 24.632C15.3385 24.7551 15.3141 24.8769 15.2668 24.9906C15.2195 25.1043 15.1503 25.2075 15.0632 25.2944C14.976 25.3813 14.8726 25.4502 14.7588 25.4972C14.645 25.5441 14.5231 25.5682 14.4 25.568C14.1514 25.5676 13.9131 25.4686 13.7376 25.2925C13.5621 25.1165 13.4636 24.8779 13.464 24.6293C13.4644 24.3807 13.5634 24.1425 13.7395 23.9669C13.9155 23.7914 14.1541 23.693 14.4027 23.6933ZM29.1013 17.8973C28.9782 17.8972 28.8564 17.8729 28.7427 17.8257C28.629 17.7785 28.5257 17.7094 28.4387 17.6223C28.3518 17.5352 28.2828 17.4318 28.2358 17.3181C28.1887 17.2043 28.1646 17.0824 28.1647 16.9593C28.1648 16.8362 28.1891 16.7144 28.2363 16.6007C28.2835 16.487 28.3526 16.3837 28.4397 16.2967C28.5268 16.2098 28.6302 16.1408 28.7439 16.0938C28.8577 16.0467 28.9796 16.0226 29.1027 16.0227C29.3513 16.0228 29.5896 16.1218 29.7653 16.2977C29.9409 16.4736 30.0395 16.7121 30.0393 16.9607C30.0392 17.2093 29.9402 17.4476 29.7643 17.6233C29.5884 17.7989 29.3499 17.8975 29.1013 17.8973Z" stroke="white" stroke-width="1.33333"/>
</g>
<defs>
<clipPath id="clip0_1_51">
<rect width="32" height="32" fill="white"/>
</clipPath>
</defs>
</svg>
