<svg width="32" height="32" viewBox="0 0 32 32" fill="none" xmlns="http://www.w3.org/2000/svg">
<g clip-path="url(#clip0_1_57)">
<path fill-rule="evenodd" clip-rule="evenodd" d="M32 5.1976C30.8217 5.76041 29.5567 6.13876 28.2297 6.31193C29.5849 5.43665 30.6259 4.05312 31.1172 2.40042C29.8466 3.21172 28.4386 3.80088 26.944 4.11712C25.7487 2.74112 24.0395 1.88278 22.1534 1.88278C18.5243 1.88278 15.584 5.04888 15.584 8.95288C15.584 9.50818 15.6442 10.0465 15.7534 10.5642C10.2983 10.2686 5.45507 7.45641 2.21742 3.17783C1.65458 4.22067 1.32893 5.43667 1.32893 6.73172C1.32893 9.18442 2.84612 11.3453 4.608 12.6159C3.5313 12.5783 1.98965 12.2583 1.98965 11.7275V11.8216C1.98965 15.2437 3.89648 18.0992 6.89882 18.7524C6.34918 18.9105 5.59248 18.999 4.992 18.999C4.56847 18.999 4.06777 18.9538 3.66493 18.8691C4.5026 21.6776 6.88377 23.7218 9.75623 23.7821C7.5087 25.6738 4.65507 26.8051 1.5793 26.8051C1.04847 26.8051 0.512 26.7712 0 26.7072C2.90823 28.7101 6.35293 29.8828 10.0612 29.8828C22.144 29.8828 28.7454 19.1138 28.7454 9.7736C28.7454 9.46676 28.7379 9.15806 28.7228 8.855C30.0066 7.85923 31.1209 6.615 32 5.1976Z" fill="white" stroke="white" stroke-width="0.0166667"/>
</g>
<defs>
<clipPath id="clip0_1_57">
<rect width="32" height="32" fill="white"/>
</clipPath>
</defs>
</svg>
