<svg width="106" height="32" viewBox="0 0 106 32" fill="none" xmlns="http://www.w3.org/2000/svg">
<path d="M25.3358 2C25.019 2.005 17.5387 2.16368 14.4129 6.55451L8.90906 15.9389C8.50396 16.6244 8.72705 17.4976 9.41442 17.9261L16.222 22.2472C16.4891 22.4157 16.7957 22.4962 17.1 22.4962C17.5683 22.4962 18.0325 22.3046 18.3414 21.9416L25.4818 13.5913C25.4917 13.5803 25.501 13.5692 25.5093 13.5572C26.6551 11.9502 27.0077 10.0382 26.9999 8.24976C26.9863 5.18938 25.9036 2.4924 25.8309 2.3164C25.7509 2.12341 25.5438 2.018 25.3358 2ZM19.9391 7.49978C20.4929 7.49865 21.0529 7.64973 21.5471 7.96753C22.8649 8.815 23.2151 10.5233 22.3291 11.7838C21.4431 13.0442 19.6571 13.3793 18.3394 12.5318C17.0216 11.6843 16.6713 9.976 17.5573 8.71555C18.1111 7.92776 19.0163 7.50165 19.9391 7.49978ZM10.6079 11.0045C7.895 11.0695 5.76159 12.1149 4.10458 14.1948C3.98436 14.3498 3.96888 14.5492 4.05251 14.7192C4.14138 14.8892 4.32453 14.9995 4.52316 14.9995H5.43791C6.16971 14.9995 7.11558 15.0693 8.06169 15.3393L10.6079 11.0045ZM22.3894 18.7688C20.633 20.8138 18.9393 22.7838 18.8243 22.8888C19.5352 23.8738 19.9329 24.894 20.1995 25.584L20.2362 25.6738C20.3042 25.8438 20.4605 25.9691 20.6487 25.9941C20.6748 25.9991 20.7012 25.999 20.7273 25.999C20.8893 25.999 21.0466 25.9287 21.1459 25.8037C22.3168 24.3238 22.8182 22.8892 22.8182 20.9992C22.8182 20.1743 22.635 19.4188 22.3894 18.7688ZM9.44913 19.1458C8.32529 20.9157 7.45748 24.6222 9.10508 25.7031C9.40616 25.9001 9.76416 26 10.175 26C10.3522 26 10.5395 25.9808 10.7355 25.9443C12.346 25.6419 14.3463 24.1203 15.2694 22.8449L14.1852 22.1554C13.1717 23.0919 11.6343 23.8897 10.7243 23.3067C9.81423 22.7198 9.97974 21.0598 10.4925 19.8088L9.44913 19.1458Z" fill="white" fill-opacity="0.8"/>
<path d="M34.6458 21.5V6.95455H44.5748V9.80966H38.1614V12.7926H43.9426V15.6548H38.1614V21.5H34.6458ZM52.6998 16.7912V10.5909H56.1657V21.5H52.856V19.4688H52.7424C52.5009 20.1364 52.089 20.6667 51.5066 21.0597C50.9289 21.4479 50.2305 21.642 49.4114 21.642C48.668 21.642 48.0146 21.4716 47.4512 21.1307C46.8877 20.7898 46.4498 20.3139 46.1373 19.7031C45.8248 19.0876 45.6661 18.3679 45.6614 17.544V10.5909H49.1344V16.8622C49.1391 17.4541 49.2954 17.9205 49.6032 18.2614C49.9109 18.6023 50.33 18.7727 50.8603 18.7727C51.2059 18.7727 51.516 18.697 51.7907 18.5455C52.07 18.3892 52.2902 18.1643 52.4512 17.8707C52.6169 17.5724 52.6998 17.2126 52.6998 16.7912ZM61.8493 15.2784V21.5H58.3762V10.5909H61.6788V12.5938H61.7995C62.041 11.9261 62.4529 11.4029 63.0353 11.0241C63.6177 10.6406 64.3114 10.4489 65.1163 10.4489C65.8833 10.4489 66.5486 10.6217 67.112 10.9673C67.6802 11.3082 68.1206 11.7865 68.4331 12.402C68.7503 13.0128 68.9065 13.7277 68.9018 14.5469V21.5H65.4288V15.2287C65.4335 14.6226 65.2797 14.1491 64.9672 13.8082C64.6594 13.4673 64.2309 13.2969 63.6816 13.2969C63.3171 13.2969 62.9951 13.3774 62.7157 13.5384C62.4411 13.6946 62.228 13.9195 62.0765 14.2131C61.9297 14.5066 61.854 14.8617 61.8493 15.2784ZM75.0364 21.6562C74.2315 21.6562 73.4999 21.4479 72.8418 21.0312C72.1837 20.6146 71.6581 19.9896 71.2651 19.1562C70.8721 18.3229 70.6756 17.2884 70.6756 16.0526C70.6756 14.7694 70.8792 13.7135 71.2864 12.8849C71.6936 12.0563 72.2263 11.4432 72.8844 11.0455C73.5473 10.6477 74.2599 10.4489 75.0222 10.4489C75.5951 10.4489 76.0852 10.5483 76.4924 10.7472C76.8996 10.9413 77.2357 11.1922 77.5009 11.5C77.766 11.8078 77.9673 12.1274 78.1046 12.4588H78.1756V6.95455H81.6486V21.5H78.2111V19.7315H78.1046C77.9578 20.0677 77.7495 20.3826 77.4796 20.6761C77.2097 20.9697 76.8712 21.2064 76.464 21.3864C76.0615 21.5663 75.5856 21.6562 75.0364 21.6562ZM76.2438 18.9503C76.6652 18.9503 77.025 18.8319 77.3233 18.5952C77.6216 18.3537 77.8513 18.0152 78.0123 17.5795C78.1732 17.1439 78.2537 16.6326 78.2537 16.0455C78.2537 15.4489 78.1732 14.9351 78.0123 14.5043C77.856 14.0734 77.6264 13.742 77.3233 13.5099C77.025 13.2779 76.6652 13.1619 76.2438 13.1619C75.8129 13.1619 75.4483 13.2803 75.15 13.517C74.8517 13.7538 74.6245 14.0876 74.4682 14.5185C74.3167 14.9493 74.2409 15.4583 74.2409 16.0455C74.2409 16.6326 74.3191 17.1439 74.4753 17.5795C74.6316 18.0152 74.8565 18.3537 75.15 18.5952C75.4483 18.8319 75.8129 18.9503 76.2438 18.9503ZM83.8734 21.5V19.5185L88.9302 13.3608V13.2898H84.051V10.5909H93.0708V12.7642L88.3833 18.7301V18.8011H93.2413V21.5H83.8734ZM100.265 21.706C99.1196 21.706 98.1348 21.4716 97.3109 21.0028C96.4918 20.5294 95.8597 19.8712 95.4146 19.0284C94.9743 18.1809 94.7541 17.1984 94.7541 16.081C94.7541 14.9588 94.9743 13.9763 95.4146 13.1335C95.8597 12.286 96.4918 11.6278 97.3109 11.1591C98.1348 10.6856 99.1196 10.4489 100.265 10.4489C101.411 10.4489 102.394 10.6856 103.213 11.1591C104.037 11.6278 104.669 12.286 105.109 13.1335C105.554 13.9763 105.777 14.9588 105.777 16.081C105.777 17.1984 105.554 18.1809 105.109 19.0284C104.669 19.8712 104.037 20.5294 103.213 21.0028C102.394 21.4716 101.411 21.706 100.265 21.706ZM100.287 19.0852C100.703 19.0852 101.056 18.9574 101.345 18.7017C101.634 18.446 101.854 18.0909 102.006 17.6364C102.162 17.1818 102.24 16.6562 102.24 16.0597C102.24 15.4536 102.162 14.9233 102.006 14.4688C101.854 14.0142 101.634 13.6591 101.345 13.4034C101.056 13.1477 100.703 13.0199 100.287 13.0199C99.8559 13.0199 99.4913 13.1477 99.193 13.4034C98.8994 13.6591 98.6745 14.0142 98.5183 14.4688C98.3668 14.9233 98.291 15.4536 98.291 16.0597C98.291 16.6562 98.3668 17.1818 98.5183 17.6364C98.6745 18.0909 98.8994 18.446 99.193 18.7017C99.4913 18.9574 99.8559 19.0852 100.287 19.0852Z" fill="white" fill-opacity="0.8"/>
</svg>
