<svg width="32" height="32" viewBox="0 0 32 32" fill="none" xmlns="http://www.w3.org/2000/svg">
<path d="M16 1.28C24.1299 1.28 30.72 7.87008 30.72 16C30.72 24.1299 24.1299 30.72 16 30.72C7.87008 30.72 1.28 24.1299 1.28 16C1.28 7.87008 7.87008 1.28 16 1.28ZM21.0778 22C21.3485 21.1693 22.617 12.8902 22.7738 11.2589C22.8211 10.7648 22.665 10.4365 22.359 10.2899C21.9891 10.112 21.4413 10.201 20.8058 10.4301C19.9341 10.7443 8.7904 15.4758 8.14656 15.7498C7.536 16.009 6.95872 16.2918 6.95872 16.7014C6.95872 16.9894 7.1296 17.1514 7.60064 17.3197C8.09088 17.4944 9.32544 17.8688 10.0544 18.0698C10.7565 18.2637 11.5558 18.0954 12.0038 17.817C12.4787 17.5219 17.959 13.8547 18.3526 13.5334C18.7456 13.2122 19.0592 13.6237 18.7379 13.9456C18.4166 14.2669 14.6547 17.9181 14.1587 18.4237C13.5565 19.0374 13.984 19.6736 14.3878 19.9283C14.8493 20.2189 18.1677 22.4448 18.6675 22.8019C19.1674 23.159 19.6742 23.321 20.1382 23.321C20.6022 23.321 20.8467 22.7098 21.0778 22Z" fill="white"/>
</svg>
