<svg width="21" height="20" viewBox="0 0 21 20" fill="none" xmlns="http://www.w3.org/2000/svg">
<path fill-rule="evenodd" clip-rule="evenodd" d="M10.998 3.293C11.1855 3.10553 11.4399 3.00021 11.705 3.00021C11.9702 3.00021 12.2245 3.10553 12.412 3.293L18.412 9.293C18.5995 9.48053 18.7048 9.73484 18.7048 10C18.7048 10.2652 18.5995 10.5195 18.412 10.707L12.412 16.707C12.2234 16.8892 11.9708 16.99 11.7086 16.9877C11.4464 16.9854 11.1956 16.8802 11.0102 16.6948C10.8248 16.5094 10.7196 16.2586 10.7173 15.9964C10.7151 15.7342 10.8159 15.4816 10.998 15.293L15.291 11H3.70502C3.4398 11 3.18545 10.8946 2.99791 10.7071C2.81037 10.5196 2.70502 10.2652 2.70502 10C2.70502 9.73478 2.81037 9.48043 2.99791 9.29289C3.18545 9.10536 3.4398 9 3.70502 9H15.291L10.998 4.707C10.8105 4.51947 10.7052 4.26516 10.7052 4C10.7052 3.73484 10.8105 3.48053 10.998 3.293Z" fill="black"/>
</svg>
