<svg width="113" height="31" viewBox="0 0 113 31" fill="none" xmlns="http://www.w3.org/2000/svg">
<path d="M25.974 0.5C25.5883 0.50625 16.4819 0.704598 12.6765 6.19313L5.97625 17.9236C5.48308 18.7805 5.75467 19.872 6.59147 20.4076L14.8789 25.809C15.2041 26.0197 15.5774 26.1203 15.9478 26.1203C16.5179 26.1203 17.083 25.8807 17.4591 25.427L26.1517 14.9892C26.1638 14.9754 26.1751 14.9614 26.1853 14.9464C27.5801 12.9378 28.0094 10.5477 27.9998 8.3122C27.9833 4.48673 26.6652 1.11549 26.5768 0.895503C26.4794 0.654262 26.2272 0.522499 25.974 0.5ZM19.4042 7.37472C20.0783 7.37331 20.7601 7.56216 21.3617 7.95942C22.9659 9.01875 23.3923 11.1542 22.3137 12.7297C21.2351 14.3053 19.0608 14.7241 17.4566 13.6647C15.8524 12.6054 15.426 10.47 16.5046 8.89443C17.1787 7.90971 18.2807 7.37706 19.4042 7.37472ZM8.04438 11.7556C4.74173 11.8369 2.14454 13.1436 0.127317 15.7435C-0.0190427 15.9373 -0.0378849 16.1865 0.0639307 16.399C0.17211 16.6115 0.39508 16.7493 0.636892 16.7493H1.7505C2.64139 16.7493 3.79288 16.8366 4.94467 17.1741L8.04438 11.7556ZM22.3871 21.4611C20.2489 24.0172 18.187 26.4798 18.047 26.611C18.9124 27.8422 19.3966 29.1175 19.7211 29.98L19.7659 30.0923C19.8486 30.3048 20.0389 30.4614 20.268 30.4927C20.2998 30.4989 20.3318 30.4988 20.3637 30.4988C20.5609 30.4988 20.7523 30.4109 20.8732 30.2547C22.2987 28.4047 22.9091 26.6115 22.9091 24.249C22.9091 23.2178 22.6861 22.2735 22.3871 21.4611ZM6.63372 21.9322C5.26558 24.1446 4.20911 28.7777 6.21488 30.1289C6.58142 30.3752 7.01724 30.5 7.51741 30.5C7.73313 30.5 7.96111 30.476 8.19974 30.4304C10.1603 30.0523 12.5955 28.1504 13.7193 26.5561L12.3994 25.6943C11.1655 26.8649 9.29396 27.8622 8.18607 27.1334C7.07819 26.3997 7.27969 24.3247 7.90394 22.7611L6.63372 21.9322Z" fill="url(#paint0_linear_1_13)"/>
<path d="M41.1458 22.5V7.95455H51.0748V10.8097H44.6614V13.7926H50.4426V16.6548H44.6614V22.5H41.1458ZM59.1998 17.7912V11.5909H62.6657V22.5H59.356V20.4688H59.2424C59.0009 21.1364 58.589 21.6667 58.0066 22.0597C57.4289 22.4479 56.7305 22.642 55.9114 22.642C55.168 22.642 54.5146 22.4716 53.9512 22.1307C53.3877 21.7898 52.9498 21.3139 52.6373 20.7031C52.3248 20.0876 52.1661 19.3679 52.1614 18.544V11.5909H55.6344V17.8622C55.6391 18.4541 55.7954 18.9205 56.1032 19.2614C56.4109 19.6023 56.83 19.7727 57.3603 19.7727C57.7059 19.7727 58.016 19.697 58.2907 19.5455C58.57 19.3892 58.7902 19.1643 58.9512 18.8707C59.1169 18.5724 59.1998 18.2126 59.1998 17.7912ZM68.3493 16.2784V22.5H64.8762V11.5909H68.1788V13.5938H68.2995C68.541 12.9261 68.9529 12.4029 69.5353 12.0241C70.1177 11.6406 70.8114 11.4489 71.6163 11.4489C72.3833 11.4489 73.0486 11.6217 73.612 11.9673C74.1802 12.3082 74.6206 12.7865 74.9331 13.402C75.2503 14.0128 75.4065 14.7277 75.4018 15.5469V22.5H71.9288V16.2287C71.9335 15.6226 71.7797 15.1491 71.4672 14.8082C71.1594 14.4673 70.7309 14.2969 70.1816 14.2969C69.8171 14.2969 69.4951 14.3774 69.2157 14.5384C68.9411 14.6946 68.728 14.9195 68.5765 15.2131C68.4297 15.5066 68.354 15.8617 68.3493 16.2784ZM81.5364 22.6562C80.7315 22.6562 79.9999 22.4479 79.3418 22.0312C78.6837 21.6146 78.1581 20.9896 77.7651 20.1562C77.3721 19.3229 77.1756 18.2884 77.1756 17.0526C77.1756 15.7694 77.3792 14.7135 77.7864 13.8849C78.1936 13.0563 78.7263 12.4432 79.3844 12.0455C80.0473 11.6477 80.7599 11.4489 81.5222 11.4489C82.0951 11.4489 82.5852 11.5483 82.9924 11.7472C83.3996 11.9413 83.7357 12.1922 84.0009 12.5C84.266 12.8078 84.4673 13.1274 84.6046 13.4588H84.6756V7.95455H88.1486V22.5H84.7111V20.7315H84.6046C84.4578 21.0677 84.2495 21.3826 83.9796 21.6761C83.7097 21.9697 83.3712 22.2064 82.964 22.3864C82.5615 22.5663 82.0856 22.6562 81.5364 22.6562ZM82.7438 19.9503C83.1652 19.9503 83.525 19.8319 83.8233 19.5952C84.1216 19.3537 84.3513 19.0152 84.5123 18.5795C84.6732 18.1439 84.7537 17.6326 84.7537 17.0455C84.7537 16.4489 84.6732 15.9351 84.5123 15.5043C84.356 15.0734 84.1264 14.742 83.8233 14.5099C83.525 14.2779 83.1652 14.1619 82.7438 14.1619C82.3129 14.1619 81.9483 14.2803 81.65 14.517C81.3517 14.7538 81.1245 15.0876 80.9682 15.5185C80.8167 15.9493 80.7409 16.4583 80.7409 17.0455C80.7409 17.6326 80.8191 18.1439 80.9753 18.5795C81.1316 19.0152 81.3565 19.3537 81.65 19.5952C81.9483 19.8319 82.3129 19.9503 82.7438 19.9503ZM90.3734 22.5V20.5185L95.4302 14.3608V14.2898H90.551V11.5909H99.5708V13.7642L94.8833 19.7301V19.8011H99.7413V22.5H90.3734ZM106.765 22.706C105.62 22.706 104.635 22.4716 103.811 22.0028C102.992 21.5294 102.36 20.8712 101.915 20.0284C101.474 19.1809 101.254 18.1984 101.254 17.081C101.254 15.9588 101.474 14.9763 101.915 14.1335C102.36 13.286 102.992 12.6278 103.811 12.1591C104.635 11.6856 105.62 11.4489 106.765 11.4489C107.911 11.4489 108.894 11.6856 109.713 12.1591C110.537 12.6278 111.169 13.286 111.609 14.1335C112.054 14.9763 112.277 15.9588 112.277 17.081C112.277 18.1984 112.054 19.1809 111.609 20.0284C111.169 20.8712 110.537 21.5294 109.713 22.0028C108.894 22.4716 107.911 22.706 106.765 22.706ZM106.787 20.0852C107.203 20.0852 107.556 19.9574 107.845 19.7017C108.134 19.446 108.354 19.0909 108.506 18.6364C108.662 18.1818 108.74 17.6562 108.74 17.0597C108.74 16.4536 108.662 15.9233 108.506 15.4688C108.354 15.0142 108.134 14.6591 107.845 14.4034C107.556 14.1477 107.203 14.0199 106.787 14.0199C106.356 14.0199 105.991 14.1477 105.693 14.4034C105.399 14.6591 105.175 15.0142 105.018 15.4688C104.867 15.9233 104.791 16.4536 104.791 17.0597C104.791 17.6562 104.867 18.1818 105.018 18.6364C105.175 19.0909 105.399 19.446 105.693 19.7017C105.991 19.9574 106.356 20.0852 106.787 20.0852Z" fill="url(#paint1_linear_1_13)"/>
<defs>
<linearGradient id="paint0_linear_1_13" x1="14" y1="0.5" x2="14" y2="30.5" gradientUnits="userSpaceOnUse">
<stop stop-color="#00FE90"/>
<stop offset="1" stop-color="#00A2FF"/>
</linearGradient>
<linearGradient id="paint1_linear_1_13" x1="40" y1="15.5" x2="113" y2="15.5" gradientUnits="userSpaceOnUse">
<stop stop-color="#00FE90"/>
<stop offset="1" stop-color="#00A2FF"/>
</linearGradient>
</defs>
</svg>
